<svg width="23" height="21" viewBox="0 0 23 21" fill="none" xmlns="http://www.w3.org/2000/svg">
<path d="M9.26389 9.65651C10.5337 9.03771 11.1965 8.10138 11.1965 6.64394C11.1965 3.76978 9.09618 3.06956 6.6724 3.06956H0V17.4973H6.86007C9.4316 17.4973 11.8474 16.2394 11.8474 13.3082C11.8474 11.4966 11.0049 10.1573 9.26389 9.65651ZM3.11059 5.53255H6.02951C7.15156 5.53255 8.16181 5.85416 8.16181 7.18132C8.16181 8.4067 7.37517 8.8993 6.2651 8.8993H3.11059V5.53255ZM6.43681 15.0466H3.11059V11.0732H6.50069C7.87031 11.0732 8.73681 11.6554 8.73681 13.1332C8.73681 14.5906 7.7026 15.0466 6.43681 15.0466ZM20.7519 5.24757H15.0139V3.82678H20.7519V5.24757ZM23 12.4248C23 9.3349 21.2271 6.75793 18.0127 6.75793C14.8901 6.75793 12.7698 9.1517 12.7698 12.2864C12.7698 15.5392 14.7783 17.7701 18.0127 17.7701C20.4604 17.7701 22.0457 16.6465 22.8083 14.2568H20.3247C20.0571 15.1484 18.955 15.6206 18.1005 15.6206C16.4514 15.6206 15.5849 14.6354 15.5849 12.9622H22.976C22.988 12.7912 23 12.608 23 12.4248ZM15.5889 11.1547C15.6807 9.78272 16.5752 8.92373 17.9248 8.92373C19.3384 8.92373 20.0491 9.7705 20.1689 11.1547H15.5889Z" fill="#6800F3"/>
</svg>
