<svg width="23" height="23" viewBox="0 0 23 23" fill="none" xmlns="http://www.w3.org/2000/svg">
<path d="M7.47496 1.91667H15.525C18.5916 1.91667 21.0833 4.40834 21.0833 7.475V15.525C21.0833 16.9992 20.4977 18.4129 19.4553 19.4553C18.4129 20.4977 16.9991 21.0833 15.525 21.0833H7.47496C4.40829 21.0833 1.91663 18.5917 1.91663 15.525V7.475C1.91663 6.00084 2.50223 4.58706 3.54462 3.54467C4.58701 2.50228 6.0008 1.91667 7.47496 1.91667ZM7.28329 3.83334C6.36829 3.83334 5.49077 4.19682 4.84377 4.84382C4.19677 5.49082 3.83329 6.36834 3.83329 7.28334V15.7167C3.83329 17.6237 5.37621 19.1667 7.28329 19.1667H15.7166C16.6316 19.1667 17.5091 18.8032 18.1561 18.1562C18.8031 17.5092 19.1666 16.6317 19.1666 15.7167V7.28334C19.1666 5.37625 17.6237 3.83334 15.7166 3.83334H7.28329ZM16.5312 5.27084C16.8489 5.27084 17.1536 5.39705 17.3783 5.6217C17.6029 5.84635 17.7291 6.15105 17.7291 6.46875C17.7291 6.78646 17.6029 7.09116 17.3783 7.31581C17.1536 7.54046 16.8489 7.66667 16.5312 7.66667C16.2135 7.66667 15.9088 7.54046 15.6841 7.31581C15.4595 7.09116 15.3333 6.78646 15.3333 6.46875C15.3333 6.15105 15.4595 5.84635 15.6841 5.6217C15.9088 5.39705 16.2135 5.27084 16.5312 5.27084ZM11.5 6.70834C12.7708 6.70834 13.9896 7.21317 14.8882 8.11178C15.7868 9.01039 16.2916 10.2292 16.2916 11.5C16.2916 12.7708 15.7868 13.9896 14.8882 14.8882C13.9896 15.7868 12.7708 16.2917 11.5 16.2917C10.2291 16.2917 9.01035 15.7868 8.11174 14.8882C7.21313 13.9896 6.70829 12.7708 6.70829 11.5C6.70829 10.2292 7.21313 9.01039 8.11174 8.11178C9.01035 7.21317 10.2291 6.70834 11.5 6.70834ZM11.5 8.625C10.7375 8.625 10.0062 8.9279 9.46702 9.46707C8.92786 10.0062 8.62496 10.7375 8.62496 11.5C8.62496 12.2625 8.92786 12.9938 9.46702 13.5329C10.0062 14.0721 10.7375 14.375 11.5 14.375C12.2625 14.375 12.9937 14.0721 13.5329 13.5329C14.0721 12.9938 14.375 12.2625 14.375 11.5C14.375 10.7375 14.0721 10.0062 13.5329 9.46707C12.9937 8.9279 12.2625 8.625 11.5 8.625Z" fill="#6800F3"/>
</svg>
