<svg width="23" height="23" viewBox="0 0 23 23" fill="none" xmlns="http://www.w3.org/2000/svg">
<path d="M18.7378 2.87213C18.5071 2.88891 18.2806 2.94304 18.0672 3.03241H18.0643C17.8595 3.11363 16.8856 3.52331 15.4049 4.14431L10.0991 6.37891C6.29192 7.98172 2.54938 9.5601 2.54938 9.5601L2.59395 9.54285C2.59395 9.54285 2.33592 9.62766 2.06638 9.81238C1.89987 9.91834 1.75658 10.057 1.6452 10.2199C1.51295 10.414 1.40657 10.7108 1.4461 11.0177C1.51079 11.5367 1.84717 11.8479 2.08867 12.0197C2.33304 12.1936 2.56592 12.2748 2.56592 12.2748H2.57167L6.08132 13.4572C6.23873 13.9624 7.15082 16.9611 7.37004 17.6518C7.49942 18.0644 7.6252 18.3224 7.7826 18.5193C7.85879 18.6199 7.94792 18.704 8.05501 18.7716C8.11068 18.804 8.17005 18.8296 8.23182 18.8478L8.19588 18.8392C8.20667 18.842 8.21529 18.8507 8.2232 18.8535C8.25195 18.8614 8.27135 18.8643 8.30801 18.8701C8.8636 19.0383 9.30995 18.6933 9.30995 18.6933L9.3351 18.6731L11.4073 16.7864L14.8803 19.4508L14.9593 19.4846C15.6831 19.8023 16.4162 19.6255 16.8036 19.3135C17.1939 18.9994 17.3456 18.5977 17.3456 18.5977L17.3707 18.533L20.0545 4.784C20.1307 4.44475 20.1501 4.12706 20.066 3.81872C19.9793 3.50666 19.7791 3.23826 19.5047 3.06619C19.2743 2.92611 19.0071 2.8585 18.7378 2.87213ZM18.6652 4.34556C18.6623 4.39084 18.6709 4.38581 18.6508 4.47278V4.48069L15.9922 18.0866C15.9807 18.106 15.9613 18.1484 15.9081 18.1909C15.852 18.2354 15.8074 18.2634 15.5739 18.1707L11.326 14.9141L8.7601 17.2529L9.29917 13.8101L16.2394 7.34131C16.5255 7.07538 16.4299 7.01931 16.4299 7.01931C16.45 6.693 15.9979 6.92372 15.9979 6.92372L7.24642 12.3453L7.24354 12.3309L3.04892 10.9185V10.9157L3.03814 10.9135C3.04549 10.9111 3.05269 10.9082 3.0597 10.9049L3.0827 10.8934L3.10498 10.8855C3.10498 10.8855 6.85039 9.3071 10.6576 7.70428C12.5637 6.90144 14.4842 6.09285 15.9613 5.46897C16.8372 5.10025 17.7141 4.73369 18.5919 4.36928C18.6508 4.34628 18.6228 4.34556 18.6652 4.34556Z" fill="#6800F3"/>
</svg>
