<svg width="22" height="22" viewBox="0 0 22 22" fill="none" xmlns="http://www.w3.org/2000/svg">
<path fill-rule="evenodd" clip-rule="evenodd" d="M6.41201 8.25585V21.5684H11.8345V0H6.41201C6.28008 0.336974 5.96344 0.804994 5.46209 1.40406C4.98712 1.96568 4.40661 2.54602 3.72055 3.14509C3.06088 3.74415 2.38801 4.26833 1.70195 4.71763C1.04228 5.12949 0.474964 5.33542 0 5.33542V12.3557C0.501351 12.3557 1.06867 12.2247 1.70195 11.9626C2.33524 11.7005 2.96852 11.3635 3.60181 10.9516C4.23509 10.5398 4.80241 10.1092 5.30376 9.65991C5.80511 9.17317 6.17453 8.70515 6.41201 8.25585Z" fill="#6800F3"/>
<rect x="15.741" width="5.8272" height="21.5684" fill="#6800F3"/>
</svg>
